<svg width="24" height="24" viewBox="0 0 24 24" fill="none" xmlns="http://www.w3.org/2000/svg">
<path d="M20.9199 7.8835C20.7984 7.76198 20.6539 7.66553 20.4946 7.59971C20.3353 7.53389 20.1645 7.5 19.992 7.5C19.8194 7.5 19.6486 7.53389 19.4893 7.59971C19.3301 7.66553 19.1855 7.76198 19.064 7.8835L13.078 13.8215C12.9565 13.943 12.8119 14.0394 12.6526 14.1053C12.4934 14.1711 12.3225 14.205 12.15 14.205C11.9775 14.205 11.8066 14.1711 11.6474 14.1053C11.4881 14.0394 11.3435 13.943 11.222 13.8215L5.236 7.8835C5.11449 7.76198 4.96994 7.66553 4.81067 7.59971C4.6514 7.53389 4.48057 7.5 4.30803 7.5C4.13549 7.5 3.96466 7.53389 3.80539 7.59971C3.64612 7.66553 3.50157 7.76198 3.38006 7.8835C3.13664 8.12642 3 8.45502 3 8.79753C3 9.14005 3.13664 9.46865 3.38006 9.71157L9.37917 15.6625C10.1144 16.3909 11.1109 16.8 12.15 16.8C13.1891 16.8 14.1856 16.3909 14.9208 15.6625L20.9199 9.71157C21.1634 9.46865 21.3 9.14005 21.3 8.79753C21.3 8.45502 21.1634 8.12642 20.9199 7.8835Z" fill="#C5A7EB"/>
</svg>
