<svg width="24" height="24" viewBox="0 0 24 24" fill="none" xmlns="http://www.w3.org/2000/svg">
<path fill-rule="evenodd" clip-rule="evenodd" d="M2.50015 2.19965C1.96719 2.73262 1.96719 3.59673 2.50015 4.12969L19.8704 21.5001C20.4034 22.033 21.2675 22.033 21.8005 21.5001C22.3334 20.9671 22.3334 20.103 21.8005 19.57L4.43019 2.19965C3.89722 1.66668 3.03312 1.66668 2.50015 2.19965Z" fill="white"/>
<path fill-rule="evenodd" clip-rule="evenodd" d="M2.49992 21.5C3.03288 22.0329 3.89698 22.0329 4.42995 21.5L21.8002 4.12957C22.3332 3.59661 22.3332 2.7325 21.8002 2.19953C21.2673 1.66656 20.4032 1.66656 19.8702 2.19953L2.49992 19.5699C1.96695 20.1029 1.96695 20.967 2.49992 21.5Z" fill="white"/>
</svg>
