<svg width="114" height="22" viewBox="0 0 114 22" fill="none" xmlns="http://www.w3.org/2000/svg">
<path d="M9.72036 12.3917C9.1354 11.7352 9.01624 10.6591 9.47121 9.94879C9.50371 9.89498 9.54704 9.84118 9.59037 9.78737C9.6337 9.73356 9.67703 9.67975 9.72036 9.6367C10.2837 9.07709 11.0961 8.93719 11.8002 9.19547C12.2335 9.3569 12.7426 9.38918 13.0785 9.05556C13.0893 9.0448 13.1001 9.03404 13.1109 9.02328C13.1543 8.98023 13.2084 8.92642 13.2626 8.88338C13.9884 8.61433 14.1184 8.01167 14.5842 7.55968C14.6167 7.52739 14.66 7.48434 14.6925 7.45206C14.8008 7.34444 14.9092 7.23682 15.0175 7.12921C15.05 7.09692 15.0825 7.06464 15.1258 7.02159C15.4941 6.63416 15.8407 6.19293 16.2199 5.80551C16.6099 5.41808 17.054 5.09523 17.444 4.71857C17.574 4.58942 17.7039 4.46028 17.8123 4.35267C18.1372 4.02981 18.1264 3.50248 17.7798 3.21192C16.4907 2.12498 15.0066 1.40394 13.4468 1.0488C13.3818 1.03804 13.3059 1.01651 13.2409 1.00575C12.1685 0.553755 11.0853 0.908894 9.95868 0.855085C9.89368 0.855085 9.82869 0.865847 9.75286 0.876608C9.14624 0.790514 8.65877 1.03804 8.2038 1.19946C8.14964 1.22099 8.08465 1.23175 8.01965 1.25327C7.07722 1.5546 6.15645 1.98507 5.31151 2.55545C5.24652 2.59849 5.19236 2.64154 5.13819 2.68459C4.74822 3.0182 4.41241 3.3841 4.04411 3.72848C3.6433 4.08362 3.21 4.428 2.88502 4.85847C1.95342 6.08531 1.33597 7.46282 1.03266 8.89414C1.02183 8.95871 1.01099 9.02328 0.989328 9.08785C0.95683 9.38918 0.881002 9.69051 0.805174 9.99184C0.783509 10.0564 0.772677 10.1102 0.761844 10.1748C0.686016 10.7236 0.881002 11.1756 0.837672 11.6814C0.826839 11.7675 0.837672 11.8536 0.859337 11.9397C0.87017 12.0043 0.87017 12.0796 0.881002 12.1442C1.08682 14.0383 1.83427 15.8893 3.11251 17.4498C3.13417 17.4713 3.15584 17.5036 3.1775 17.5359C3.7083 18.4829 4.67239 18.838 5.4415 19.5591C5.49567 19.6021 5.56066 19.6344 5.61483 19.6667C7.05555 20.5707 8.6696 21.0872 10.3053 21.2164C10.3703 21.2164 10.4353 21.2271 10.5003 21.2271C12.1793 21.2379 13.7501 21.0011 15.2666 20.377C15.3316 20.3447 15.3966 20.3232 15.4508 20.2909C16.2741 19.9142 17.054 19.4192 17.7689 18.8165C18.1156 18.5152 18.1156 17.9878 17.7906 17.665C17.379 17.2453 16.7723 16.6534 16.1332 16.0184C15.8083 15.6956 15.3858 15.5019 15.0608 15.1898C14.7575 14.8885 14.5408 14.458 14.205 14.1028C14.1725 14.0706 14.14 14.0383 14.1075 14.006C13.7067 13.6078 13.3493 13.2527 13.0676 12.9729C12.7426 12.65 12.2227 12.6823 11.7894 12.8437C11.2153 13.0589 10.5545 12.9944 10.0237 12.65C9.96951 12.6177 9.91535 12.5747 9.86118 12.5316C9.81785 12.4778 9.77452 12.4348 9.72036 12.3917Z" fill="#1F074D"/>
<path d="M23.4235 3.99753C23.0661 3.99753 22.7086 4.01905 22.3619 4.07286C21.9936 4.12667 21.6253 4.21276 21.2787 4.35267C21.062 4.43876 20.8454 4.53562 20.6179 4.63247C20.2713 4.77237 19.9138 4.90152 19.5996 5.10599C19.5671 5.12751 19.5346 5.14904 19.513 5.17056C19.4697 5.20285 19.4372 5.22437 19.3938 5.24589C18.7005 5.64408 18.2889 6.30055 17.7148 6.88168C17.6931 6.91397 17.6606 6.95702 17.639 6.9893C17.2057 7.69958 16.8807 8.43138 16.599 9.23852C16.5882 9.28156 16.5774 9.32461 16.5665 9.36766C16.4474 9.88422 16.3824 10.4331 16.3824 10.9819C16.3824 11.8213 16.534 12.6285 16.8048 13.3818C16.8157 13.4248 16.8373 13.4679 16.859 13.5109C17.1298 14.4365 17.6281 15.0929 18.2564 15.7279C18.2889 15.7602 18.3214 15.7924 18.3539 15.8247C18.3864 15.857 18.4189 15.8893 18.4514 15.9216C18.4839 15.9539 18.5164 15.9862 18.5489 16.0184C19.0472 16.5781 19.7188 16.987 20.3904 17.2883C20.4338 17.3099 20.4662 17.3314 20.5096 17.3421C20.7154 17.439 20.9212 17.5143 21.127 17.5897C21.1704 17.6004 21.2137 17.6219 21.257 17.6327C21.517 17.6865 21.7878 17.708 22.0586 17.7619C22.4269 17.8264 22.7844 17.9556 23.1636 17.9771C23.2502 17.9771 23.3477 17.9771 23.4452 17.9771C24.0193 17.9771 24.5718 17.9125 25.1134 17.7834C25.1351 17.7726 25.1567 17.7726 25.1892 17.7619C25.6875 17.6435 26.0992 17.396 26.6408 17.2238C26.6841 17.2022 26.7275 17.1807 26.76 17.1592C27.3341 16.8579 27.8649 16.4704 28.3307 16.0292C28.3632 15.9969 28.3957 15.9646 28.4282 15.9323C28.6232 15.6848 28.7206 15.4373 28.8831 15.2328C29.0998 14.9315 29.4248 14.7163 29.6089 14.3934C30.1722 13.3818 30.4972 12.2303 30.4972 10.9927C30.4972 10.4008 30.4214 9.81965 30.2805 9.2708C30.2697 9.22775 30.2589 9.18471 30.248 9.1309C30.0855 8.68966 29.9122 8.28072 29.7389 7.82872C29.7172 7.78567 29.6956 7.74263 29.6739 7.69958C29.6522 7.65653 29.6306 7.61349 29.6089 7.5812C29.5873 7.53815 29.5656 7.50587 29.5439 7.46282C29.4681 7.20454 29.2839 7.0754 29.1215 6.91397C28.9265 6.7095 28.8181 6.44045 28.6232 6.23598C28.2657 5.84855 27.854 5.50418 27.4207 5.20285C27.1066 4.98761 26.7491 4.86923 26.4025 4.72933C25.8934 4.51409 25.4276 4.21276 24.8751 4.13743C24.8318 4.12667 24.7884 4.11591 24.7343 4.10514C24.2901 4.04057 23.8677 3.99753 23.4235 3.99753ZM23.4994 12.3271C23.1961 12.3594 22.8711 12.3164 22.6219 12.1334C22.4703 12.0258 22.3728 11.8644 22.2969 11.6922C22.2753 11.6599 22.2536 11.6276 22.2428 11.5953C22.2211 11.5631 22.2103 11.5308 22.1886 11.4985C22.1778 11.4554 22.1561 11.4232 22.1453 11.3801C22.1345 11.3586 22.1345 11.3263 22.1236 11.3048C22.0803 11.1111 21.9936 10.9281 21.9611 10.7344C21.907 10.3577 22.3511 10.0564 22.6761 9.89498C22.7086 9.87346 22.7519 9.85194 22.7844 9.83041C22.9686 9.73356 23.1852 9.66899 23.4235 9.66899C23.521 9.66899 23.6077 9.67975 23.6943 9.69051C23.9543 9.74432 24.2251 9.80889 24.4201 9.98108C24.7018 10.2071 24.7451 10.6268 24.7559 10.9927C24.7559 11.0357 24.7559 11.068 24.7559 11.1003C24.7451 11.1972 24.7343 11.3048 24.7018 11.3909C24.6909 11.4339 24.6693 11.477 24.6584 11.5093C24.5068 11.9828 24.0085 12.2303 23.4994 12.3271Z" fill="#1F074D"/>
<path d="M35.9676 1.33937C35.9676 1.02727 35.7185 0.779752 35.4043 0.779752C35.0252 0.779752 34.6352 0.833561 34.2561 0.833561C33.9203 0.833561 33.5628 0.779752 33.2487 0.779752C33.1945 0.779752 33.1403 0.779752 33.0862 0.779752C32.642 0.779752 32.1979 0.779752 31.6671 0.779752C31.223 0.768991 30.8763 1.13489 30.8763 1.57612C30.8763 1.90974 30.8763 2.35097 30.8763 2.85678C30.8763 2.92135 30.8763 2.98592 30.8763 3.05049C30.9088 3.95448 31.0171 4.77238 30.8763 5.73017C30.8763 5.77322 30.8763 5.81627 30.8763 5.85932C30.8763 6.6234 30.8763 7.43054 30.8763 8.25919C30.8763 8.30224 30.8763 8.34529 30.8763 8.38833C30.9088 9.22775 30.9088 10.0456 30.8763 10.8097C30.8763 10.8528 30.8763 10.8958 30.8763 10.9389C30.8763 11.8967 30.8763 12.8545 30.8763 13.78C30.8763 13.9091 30.8763 14.0383 30.8763 14.1674C30.9088 14.501 30.9088 14.9638 30.8763 15.3082C30.8763 15.4373 30.8763 15.5557 30.8763 15.6741C30.8763 15.6956 30.8763 15.7063 30.8763 15.7171C30.8763 16.2444 30.963 16.7825 30.9847 17.3099C30.9847 17.439 30.9847 17.5681 30.9847 17.708C30.963 18.2354 30.8763 18.7627 30.8763 19.29C30.8763 19.5268 30.8763 19.742 30.8763 19.9142C30.8763 20.3554 31.2446 20.7106 31.6888 20.7106C31.7213 20.7106 31.7538 20.7106 31.7971 20.7106C31.8513 20.7106 31.9163 20.7106 31.9812 20.7106C32.9128 20.5922 33.9853 20.5922 34.9277 20.7106C34.971 20.7106 35.0252 20.7106 35.0685 20.7106C35.3718 20.7106 35.6968 20.7106 36.011 20.7106C36.0543 20.7106 36.0976 20.7106 36.1409 20.7106C36.6717 20.7106 37.2242 20.603 37.7875 20.603C38.3183 20.603 38.8491 20.7106 39.3799 20.7106C40.3331 20.7106 41.1564 20.7106 41.7305 20.7106C42.1747 20.7106 42.5321 20.3554 42.5321 19.9142C42.5321 19.8281 42.5321 19.7313 42.5321 19.6236C42.5321 19.5806 42.5321 19.5483 42.5213 19.5053C42.413 18.9779 42.3697 18.4937 42.413 17.9771C42.4563 17.439 42.5321 16.9117 42.5321 16.3736C42.5321 16.2875 42.5321 16.2014 42.5321 16.1153C42.5321 16.0722 42.5321 16.0292 42.5321 15.9754C42.478 15.2974 42.478 14.5979 42.5321 13.9522C42.5321 13.8984 42.5321 13.8338 42.5321 13.78C42.5321 13.4033 42.2288 13.0805 41.8389 13.0805C41.3731 13.0805 40.9181 13.1773 40.4523 13.1773C39.9432 13.1773 39.4124 13.0697 38.9574 13.0805C38.9141 13.0805 38.8599 13.0805 38.8166 13.0805C38.1016 13.1881 37.5167 13.1881 36.8342 13.0805C36.7692 13.0805 36.7042 13.0805 36.6501 13.0805C36.2384 13.0805 35.9676 13.0805 35.9676 13.0805C35.9676 13.0805 35.9676 12.3917 35.9676 11.3478C35.9676 10.8205 35.9026 10.2932 35.881 9.75508C35.8485 8.88338 35.9785 7.97939 35.9676 7.05387C35.9676 7.01083 35.9676 6.95702 35.9676 6.90321C35.9676 6.37588 35.9676 5.84855 35.9676 5.33199C35.9676 5.27818 35.9676 5.22437 35.9676 5.18132C35.9785 4.38495 35.9785 3.68543 35.9676 2.88906C35.9676 2.85678 35.9676 2.81373 35.9676 2.78144C35.9676 2.20031 35.9676 1.6945 35.9676 1.33937Z" fill="#1F074D"/>
<path d="M49.8874 0.951941C49.53 0.951941 49.1725 0.973465 48.8367 1.02727C48.4684 1.08108 48.1001 1.16718 47.7534 1.30708C47.5368 1.39317 47.3201 1.49003 47.0926 1.58689C46.746 1.72679 46.3885 1.85593 46.0744 2.0604C46.0419 2.08193 46.0094 2.10345 45.9877 2.11421C45.9444 2.1465 45.9119 2.16802 45.8686 2.18955C45.1753 2.58773 44.7637 3.2442 44.2004 3.81458C44.1787 3.84686 44.1462 3.88991 44.1245 3.92219C43.7021 4.62171 43.3662 5.36427 43.0846 6.16065C43.0738 6.20369 43.0629 6.24674 43.0521 6.28979C42.9329 6.80635 42.868 7.34444 42.868 7.90405C42.868 8.74347 43.0196 9.55061 43.2904 10.2932C43.3013 10.3362 43.3229 10.3793 43.3446 10.4223C43.6154 11.3478 44.1137 12.0043 44.742 12.6392C44.7745 12.6715 44.807 12.7038 44.8395 12.7361C44.872 12.7684 44.9045 12.8007 44.937 12.833C44.9695 12.8652 45.002 12.8975 45.0345 12.9298C45.5328 13.4894 46.1935 13.8984 46.876 14.1997C46.9193 14.2212 46.9518 14.2427 46.9952 14.2535C47.201 14.3504 47.4068 14.4257 47.6126 14.501C47.6559 14.5118 47.6993 14.5333 47.7426 14.5441C48.0026 14.5979 48.2734 14.6194 48.5442 14.6732C48.9125 14.7378 49.27 14.8669 49.6383 14.8885C49.725 14.8885 49.8224 14.8885 49.9199 14.8885C50.4941 14.8885 51.0465 14.8239 51.5773 14.6947C51.599 14.684 51.6207 14.684 51.6531 14.6732C52.1514 14.5548 52.5631 14.3073 53.1047 14.1351C53.148 14.1136 53.1914 14.0921 53.2239 14.0706C53.798 13.7692 54.3288 13.3818 54.7946 12.9406C54.8271 12.9083 54.8596 12.876 54.8921 12.8437C55.0871 12.5962 55.1846 12.3487 55.347 12.1442C55.5637 11.8536 55.8887 11.6276 56.0728 11.3048C56.6361 10.3039 56.9611 9.14166 56.9611 7.90405C56.9611 7.31216 56.8853 6.73102 56.7444 6.18217C56.7336 6.13912 56.7228 6.09607 56.7119 6.04227C56.5495 5.60103 56.387 5.19208 56.2028 4.74009C56.1812 4.69704 56.1595 4.65399 56.1378 4.62171C56.1162 4.57866 56.0945 4.53562 56.0728 4.50333C56.0512 4.46028 56.0295 4.428 56.0078 4.38495C55.932 4.12667 55.7479 3.99753 55.5854 3.8361C55.3904 3.63163 55.2821 3.36258 55.0871 3.15811C54.7296 2.77068 54.3288 2.42631 53.8847 2.13574C53.5813 1.93126 53.213 1.80212 52.8772 1.66222C52.3681 1.44698 51.9023 1.15641 51.3607 1.07032C51.3173 1.05956 51.274 1.0488 51.2198 1.03804C50.7541 0.984226 50.3207 0.951941 49.8874 0.951941ZM49.9633 9.24928C49.66 9.28156 49.335 9.23852 49.0858 9.05556C48.9342 8.94795 48.8367 8.78652 48.7609 8.61433C48.7392 8.58205 48.7175 8.54976 48.7067 8.51748C48.685 8.48519 48.6742 8.45291 48.6525 8.42062C48.6417 8.38833 48.62 8.34529 48.6092 8.30224C48.5984 8.28072 48.5984 8.24843 48.5875 8.22691C48.5442 8.0332 48.4575 7.85025 48.425 7.65653C48.3709 7.27987 48.815 6.9893 49.14 6.82788C49.1725 6.80635 49.2158 6.78483 49.2483 6.76331C49.4325 6.66645 49.6491 6.60188 49.8874 6.60188C49.9741 6.60188 50.0716 6.61264 50.1583 6.6234C50.4182 6.67721 50.6782 6.74178 50.884 6.91397C51.1657 7.13997 51.209 7.55968 51.2198 7.92558C51.2198 7.96863 51.2198 8.00091 51.2198 8.0332C51.209 8.13005 51.1982 8.22691 51.1657 8.32376C51.1549 8.36681 51.1332 8.40986 51.1224 8.44214C50.9599 8.91566 50.4724 9.16318 49.9633 9.24928Z" fill="#1F074D"/>
<path d="M71.0326 7.46282C71.0326 6.66645 70.8484 5.90236 70.5018 5.21361C70.4801 5.17056 70.4585 5.11675 70.4259 5.0737C70.1226 4.48181 69.8193 3.98676 69.2777 3.56705C69.2344 3.53477 69.2019 3.49172 69.1585 3.45944C68.8227 2.80297 68.1295 2.70611 67.512 2.34021C67.4687 2.31869 67.4145 2.29716 67.3712 2.27564C67.3278 2.25412 67.2845 2.23259 67.2412 2.21107C67.1979 2.18955 67.1545 2.16802 67.1112 2.15726C66.5371 1.90974 65.9413 1.71603 65.2372 1.61917C65.183 1.60841 65.1288 1.59765 65.0747 1.58689C64.663 1.52232 64.2406 1.49003 63.8073 1.49003C63.8073 1.49003 63.6556 1.49003 63.4065 1.49003C63.3523 1.49003 63.309 1.49003 63.244 1.49003C62.6374 1.40394 62.0416 1.51155 61.4458 1.49003C61.4024 1.49003 61.3591 1.49003 61.3158 1.49003C60.7525 1.49003 60.2 1.49003 59.7776 1.49003C59.3984 1.49003 59.0951 1.7806 59.0951 2.15726C59.0951 2.18955 59.0951 2.23259 59.0951 2.26488C59.0951 2.30793 59.0951 2.34021 59.0951 2.38326C59.0409 3.08277 59.0409 3.67467 59.0951 4.40647C59.0951 4.43876 59.0951 4.47105 59.0951 4.50333C59.0951 4.58942 59.0951 4.68628 59.0951 4.77237C59.0951 4.80466 59.0951 4.83695 59.0951 4.86923C59.0409 5.55799 59.0409 6.3436 59.0951 7.06464C59.0951 7.09692 59.0951 7.12921 59.0951 7.17225C59.0951 7.73187 59.0951 8.30224 59.0951 8.88338C59.0951 8.92642 59.0951 8.96947 59.0951 9.01252C59.0409 9.80889 59.0409 10.5084 59.0951 11.3155C59.0951 11.3586 59.0951 11.3909 59.0951 11.4339C59.0951 11.7352 59.0951 12.0366 59.0951 12.3271C59.0951 12.3702 59.0951 12.4132 59.0951 12.4563C59.0626 12.9729 59.0518 13.4356 59.0626 13.9307C59.0734 14.3826 59.1601 14.8239 59.1926 15.2759C59.2034 15.4696 59.2034 15.6633 59.1926 15.857C59.1601 16.309 59.0843 16.7502 59.0843 17.2022C59.0843 17.3637 59.0843 17.5036 59.0843 17.6219C59.0843 17.9986 59.3984 18.2999 59.7667 18.2999C59.7776 18.2999 59.7992 18.2999 59.8101 18.2999C60.2217 18.3107 60.6658 18.3107 61.0775 18.3107C61.1316 18.3107 61.1858 18.3107 61.2291 18.3107C61.8032 18.3107 62.3015 18.3107 62.919 18.3107C62.9515 18.3107 62.9732 18.3107 63.0057 18.3107C63.0382 18.3107 63.0598 18.3107 63.0923 18.3107C63.4715 18.3107 63.7639 18.0094 63.7639 17.6327C63.7639 17.6004 63.7639 17.5789 63.7639 17.5466C63.7639 17.5143 63.7639 17.482 63.7639 17.4498C63.7964 16.7825 63.6231 16.1368 63.7314 15.5126C63.7423 15.4696 63.7531 15.4158 63.7639 15.362C63.7964 14.8454 63.7964 14.2535 63.7639 13.7908C63.7639 13.7369 63.7639 13.6939 63.7639 13.6616C63.7639 13.5002 63.7639 13.4033 63.7639 13.4033C64.0997 13.4033 64.4247 13.3818 64.7497 13.3495C64.7497 13.3495 64.9663 13.7585 65.2697 14.3396C65.2805 14.3719 65.3022 14.4042 65.313 14.4257C65.5946 14.8454 65.7896 15.2436 65.9521 15.6525C65.9738 15.6848 65.9846 15.7279 66.0063 15.7602C66.0713 15.8785 66.1471 15.9969 66.2013 16.1153C66.2229 16.1583 66.2446 16.2014 66.2663 16.2337C66.3962 16.5242 66.5804 16.7718 66.7429 17.0408C67.2845 17.9663 66.7862 17.3099 67.3278 18.2354C67.642 18.7735 68.1295 19.5806 68.4653 20.1079C68.6602 20.4308 69.0827 20.5492 69.4185 20.3662C69.5485 20.3016 69.6785 20.2371 69.8302 20.151C69.8627 20.1294 69.8952 20.1187 69.9277 20.0972C70.1551 19.9465 70.4043 19.8174 70.6534 19.6882C70.6968 19.6667 70.7401 19.6452 70.7834 19.6236C71.0109 19.4837 71.2384 19.3331 71.4875 19.2039C71.8125 19.0317 72.1483 18.7304 71.975 18.4076C71.5634 17.6327 70.7401 16.2229 70.5343 15.8355C70.5126 15.8032 70.5018 15.7709 70.4801 15.7494C70.2093 15.405 70.036 15.1145 69.8952 14.8024C69.7327 14.4365 69.6027 14.0598 69.4185 13.7047C69.3969 13.5217 69.2885 13.3603 69.1585 13.1773C68.8986 12.8114 68.7252 12.4025 68.5194 12.0043C68.4869 11.9505 68.4761 11.9182 68.4761 11.9182C68.6169 11.8106 68.7577 11.703 68.8877 11.5953C68.9311 11.5631 68.9744 11.52 69.0177 11.4877C69.4294 11.0034 70.1443 10.7882 70.2743 10.0995C70.2851 10.0456 70.2851 9.99184 70.296 9.92727C70.6209 9.52908 70.9134 9.03404 70.9459 8.3991C70.9567 8.34529 70.9676 8.30224 70.9676 8.24843C71.0109 7.99015 71.0326 7.73187 71.0326 7.46282ZM63.8073 5.53646C63.9806 5.53646 64.1539 5.55799 64.3164 5.59027C64.663 5.6656 65.0205 5.7517 65.2913 5.98846C65.5621 6.22522 65.7246 6.59112 65.9088 6.86016C65.9304 6.91397 65.9413 6.95702 65.9629 7.01083C66.0063 7.16149 66.0279 7.31216 66.0279 7.47358C66.0279 7.68882 65.9846 7.89329 65.9088 8.08701C65.8871 8.14081 65.8655 8.18386 65.8438 8.22691C65.5296 8.64662 65.3347 9.0448 64.8255 9.18471C64.7714 9.20623 64.7172 9.22775 64.663 9.24928C64.4031 9.34613 64.1106 9.39994 63.8073 9.39994C63.8073 9.39994 63.8073 8.91566 63.8073 8.29148C63.8073 8.25919 63.8073 8.21615 63.8073 8.1731C63.7639 7.77491 63.7098 7.38749 63.7206 6.9893C63.7314 6.53731 63.8073 6.08531 63.8073 5.63332C63.8073 5.56875 63.8073 5.53646 63.8073 5.53646Z" fill="#1F074D"/>
<path d="M75.0298 1.50079C74.629 1.50079 74.3257 1.84517 74.3473 2.24336C74.3582 2.35097 74.3582 2.45859 74.3582 2.56621C74.3473 3.06125 74.2823 3.55629 74.2823 4.05134C74.2823 4.33114 74.3582 4.40647 74.3582 4.71857C74.3582 4.76161 74.2823 5.03066 74.2823 5.06294C74.2823 5.84855 74.2715 6.63416 74.2715 7.43054C74.2715 7.49511 74.2715 7.54892 74.2715 7.61349C74.2065 7.99015 74.2932 8.33453 74.3257 8.6789C74.3365 8.73271 74.3365 8.78652 74.3473 8.82957C74.3582 9.08785 74.369 9.32461 74.3582 9.56137C74.3365 10.0564 74.2607 10.5407 74.2607 11.0357C74.2607 11.4232 74.2607 11.7891 74.2715 12.1872C74.2715 12.2411 74.2715 12.2949 74.2715 12.3487C74.2715 12.3917 74.2715 12.4455 74.2715 12.4886C74.2715 12.7576 74.2715 13.0159 74.2715 13.2742C74.2715 13.328 74.2715 13.3818 74.2715 13.4356C74.369 13.9522 74.369 14.501 74.2607 15.0929C74.2607 15.1575 74.2607 15.2113 74.2607 15.2759C74.2607 15.9969 74.2607 16.718 74.2715 17.4175C74.2715 17.4498 74.2715 17.4928 74.2715 17.5251C74.2715 18.2999 74.2715 18.9456 74.2715 19.4084C74.2715 19.8174 74.6073 20.151 75.019 20.151C75.3981 20.151 75.8856 20.151 76.4055 20.151C76.4489 20.151 76.4922 20.151 76.5355 20.151C77.5538 20.1079 78.4312 20.1079 79.4278 20.151C79.8503 20.1725 80.1752 19.8174 80.1752 19.3976C80.1752 19.1071 80.1752 18.7412 80.1752 18.3537C80.1752 18.3107 80.1752 18.2677 80.1752 18.2246C80.1969 17.6004 80.0886 16.9655 80.0994 16.309C80.1102 15.8032 80.1752 15.0929 80.1752 14.5979C80.1752 14.3826 80.1752 14.2535 80.1752 14.2535C80.5219 14.2535 80.8685 14.1459 81.226 14.1351C81.551 14.1244 81.8651 14.2105 82.1576 14.2427C82.5801 14.2966 82.9159 13.9307 82.9159 13.5109C82.9159 13.4787 82.9159 13.4464 82.9159 13.4141C82.9159 13.3818 82.9159 13.3495 82.9159 13.3065C82.8617 12.7576 82.8617 12.2088 82.9159 11.6492C82.9159 11.5953 82.9051 11.5415 82.9051 11.4877C82.8617 10.6806 82.8617 9.85194 82.9159 9.0448C82.9159 9.00176 82.9159 8.96947 82.9159 8.93719C82.9159 8.85109 82.9159 8.77576 82.9159 8.70043C82.9159 8.29148 82.5801 7.95786 82.1684 7.95786C82.1251 7.95786 82.0926 7.95786 82.0493 7.95786C81.6268 7.9471 81.161 8.10853 80.6952 8.02243C80.5327 7.99015 80.3702 7.95786 80.1969 7.95786C80.1969 7.95786 80.1969 7.69958 80.1969 7.33368C80.1969 6.83864 80.0344 6.56959 80.0778 6.07455C80.1103 5.73017 80.2186 5.3858 80.1969 5.0199C80.1969 4.96609 80.1969 4.91228 80.1969 4.86923C80.1969 4.74009 80.1969 4.654 80.1969 4.654C80.1969 4.654 80.3702 4.654 80.6627 4.654C80.7169 4.654 80.7819 4.654 80.8469 4.654C81.8868 4.654 82.8834 4.654 83.9016 4.654C83.945 4.654 83.9775 4.654 84.0208 4.654C84.0966 4.654 84.1616 4.654 84.2266 4.654C84.6491 4.654 84.9849 4.32038 84.9849 3.91143V2.09269C84.9849 1.76984 84.7249 1.50079 84.3999 1.50079C84.01 1.50079 83.6092 1.54384 83.2192 1.59765C82.8076 1.65146 82.4068 1.65146 82.0168 1.61917C81.5185 1.57612 81.031 1.50079 80.5327 1.50079C80.2836 1.50079 80.0344 1.50079 79.7853 1.50079C79.742 1.50079 79.6986 1.50079 79.6553 1.50079C78.8103 1.57612 78.0304 1.57612 77.1096 1.50079C77.0771 1.50079 77.0338 1.50079 77.0013 1.50079C76.1997 1.50079 75.5064 1.50079 75.0298 1.50079Z" fill="#1F074D"/>
<path d="M92.1885 15.3727C92.1885 15.3727 92.1885 15.3835 92.1994 15.3835C92.2102 15.405 92.2102 15.4373 92.2102 15.4588C92.1885 15.5126 92.156 15.5664 92.1452 15.6203C92.0694 16.04 91.6686 16.4059 91.1703 16.4274C91.1269 16.4274 91.0836 16.4381 91.0403 16.4381C90.412 16.4381 89.9137 15.9323 89.9137 15.3189C89.9137 15.3189 89.9137 15.179 89.9137 14.9423C89.9137 14.91 89.9137 14.8669 89.9137 14.8346C89.9462 14.1889 89.9462 13.6078 89.9137 12.9298C89.9137 12.8975 89.9137 12.8652 89.9137 12.833C89.9137 12.65 89.9137 12.4671 89.9137 12.2841C89.9137 11.9074 89.8704 11.5415 89.8487 11.1649C89.827 10.6483 89.8812 10.1102 89.9137 9.62594C89.9137 9.60442 89.9137 9.57213 89.9137 9.55061C89.9137 9.2708 89.9137 8.98023 89.9137 8.77576C89.9137 8.46367 89.6537 8.21615 89.3396 8.21615C89.3288 8.21615 89.3179 8.21615 89.3071 8.21615C88.8304 8.19462 88.3755 8.18386 87.9205 8.19462C87.8772 8.19462 87.8339 8.19462 87.7905 8.19462C87.3681 8.18386 87.0322 8.18386 86.5989 8.21615C86.5664 8.21615 86.534 8.21615 86.5015 8.21615C86.1765 8.21615 85.884 8.21615 85.6457 8.21615C85.3315 8.21615 85.0824 8.46367 85.0824 8.77576C85.0824 9.1309 85.0824 9.6367 85.0824 10.2071C85.0824 10.2394 85.0824 10.3147 85.0824 10.347C85.0932 10.6806 85.0932 11.6599 85.0716 12.3271C85.0607 12.7038 85.0282 13.0805 85.0607 13.4571C85.0824 13.6616 85.1691 13.8123 85.1582 14.0275C85.1582 14.0598 85.0824 14.1567 85.0824 14.1782C85.0824 14.8669 85.0824 15.3297 85.0824 15.3297C85.0824 15.9001 85.1582 16.4489 85.3099 16.9655C85.3207 16.987 85.3207 17.0085 85.3315 17.0408C85.5157 17.6758 85.8407 18.1708 86.1873 18.7735C86.2198 18.8057 86.2415 18.8488 86.274 18.8811C86.5231 19.2039 86.7939 19.4945 87.0972 19.7635C87.1297 19.7958 87.1622 19.8174 87.1947 19.8496C87.5847 20.3985 88.343 20.5707 88.9496 20.8612C88.9929 20.872 89.0363 20.8935 89.0796 20.9043C89.6862 21.1088 90.347 21.2271 91.0186 21.2271C91.3869 21.2271 91.7552 21.1949 92.1127 21.1303C92.1344 21.1303 92.1669 21.1195 92.1885 21.1195C92.7952 20.9151 93.4884 20.7644 94.0084 20.4415C94.1817 20.3339 94.355 20.0433 94.5067 19.9142C94.6367 19.8066 94.7667 19.8496 94.8967 19.7313C95.2542 19.4084 95.6333 19.0748 95.9258 18.6551C95.9474 18.612 95.9799 18.5797 96.0016 18.5367C96.0883 18.4076 96.1641 18.2784 96.2399 18.1385C96.4241 17.8049 96.5216 17.439 96.6082 17.0731C96.6624 16.8471 96.7165 16.6211 96.7815 16.3951C96.879 16.0292 96.9657 15.6633 96.9657 15.2866C96.9657 15.1467 96.9657 14.5441 96.9657 13.6724C96.9657 13.6508 96.9657 13.6186 96.9657 13.597C96.9332 12.6823 96.8465 11.6922 96.9657 10.8205C96.9657 10.7882 96.9657 10.7559 96.9657 10.7129C96.9657 10.2932 96.9657 9.8627 96.9657 9.42147C96.9657 9.0448 96.9007 8.66814 96.8899 8.29148C96.8682 7.69958 96.9874 7.09692 96.9765 6.50502C96.9765 6.46198 96.9765 6.41893 96.9765 6.37588C96.944 5.87008 96.944 5.46113 96.9765 4.94456C96.9765 4.91228 96.9765 4.89075 96.9765 4.86923C96.9765 4.68628 96.9765 4.51409 96.9765 4.37419C96.9765 4.0621 96.7274 3.80381 96.4024 3.80381C96.2291 3.80381 96.0341 3.80381 95.8174 3.80381C95.7849 3.80381 95.7633 3.80381 95.7308 3.80381C95.2433 3.80381 94.8208 3.80381 94.3876 3.80381C94.3442 3.80381 94.3117 3.80381 94.2684 3.80381C93.7809 3.88991 93.3585 3.80381 92.8277 3.80381C92.806 3.80381 92.7735 3.80381 92.7518 3.80381C92.7518 3.80381 92.741 3.80381 92.7302 3.80381C92.416 3.80381 92.156 4.05134 92.156 4.36343C92.156 4.83695 92.156 5.56875 92.156 6.45121C92.156 6.4835 92.221 6.63416 92.221 6.66645C92.1777 7.48434 92.1127 8.28072 92.1669 9.1309C92.1669 9.16318 92.1669 9.20623 92.1669 9.23852C92.1669 9.33537 92.1669 9.44299 92.1669 9.53985C92.1669 9.57213 92.1669 9.60442 92.1669 9.6367C92.1994 10.4331 92.1994 11.3371 92.1669 12.1872C92.1669 12.2195 92.1669 12.2518 92.1669 12.2733C92.1669 12.8652 92.1669 13.3926 92.1669 13.8553C92.1669 13.8876 92.1669 13.9199 92.1669 13.9414C92.1127 14.4042 92.4377 14.8131 92.1994 15.3297C92.1885 15.3512 92.1885 15.362 92.1885 15.3727Z" fill="#1F074D"/>
<path d="M106.585 9.64746C106.585 9.64746 106.412 9.45375 106.108 9.14166C106.076 9.09861 106.033 9.05557 105.989 9.01252C105.567 8.52824 105.155 8.11929 104.733 7.65653C104.7 7.61349 104.668 7.57044 104.624 7.53815C104.278 7.12921 103.931 6.72026 103.53 6.38664C103.509 6.35436 103.476 6.32207 103.444 6.28979C102.869 5.84855 102.447 5.22437 101.884 4.62171C101.851 4.58942 101.83 4.5679 101.808 4.53562C101.255 3.94372 100.779 3.43791 100.443 3.07201C100.27 2.88906 99.9555 3.00744 99.9555 3.25496C99.9555 3.8361 99.9555 4.74009 99.9555 5.84855C99.9555 5.8916 99.9555 5.93465 99.9555 5.97769C99.9555 6.87092 100.064 7.69958 99.9663 8.59281C99.9663 8.64662 99.9663 8.70043 99.9663 8.74347C99.9663 9.16318 99.9663 9.58289 99.9663 10.0134C99.9663 10.0564 99.9663 10.0995 99.9663 10.1425C99.9663 11.1541 99.9663 12.198 99.9663 13.2204C99.9663 13.2634 99.9663 13.2957 99.9663 13.3388C99.9663 13.5217 100.107 13.8338 100.107 14.0167C100.107 14.1997 99.9771 14.2427 99.9771 14.4257C99.9771 15.1145 99.9771 15.7817 99.9771 16.4489C99.9771 16.4812 99.9771 16.5135 99.9771 16.5565C99.9771 16.5996 99.9771 16.6319 99.9771 16.6749C99.9771 17.1484 100.053 17.6112 100.075 18.0739C100.096 18.6551 99.988 19.1932 99.9771 19.7958C99.9771 19.8496 99.9771 19.8927 99.9771 19.9357C99.9771 20.1617 99.9771 20.3554 99.9771 20.5169C99.9771 20.9043 100.291 21.2164 100.681 21.2164H105.892C106.282 21.2164 106.585 20.9043 106.607 20.5169C106.628 20.1079 106.628 19.6344 106.574 19.2362C106.574 19.1824 106.563 19.1286 106.563 19.0748C106.498 18.2892 106.455 17.439 106.607 16.6426C106.607 16.5996 106.607 16.5565 106.607 16.5135C106.607 14.7055 106.607 13.0805 106.607 13.0805C106.607 13.0805 107.777 14.3288 109.131 15.7817C109.163 15.814 109.185 15.8463 109.217 15.8785C109.499 16.2767 109.921 16.5888 110.268 16.9332C110.604 17.256 110.875 17.6435 111.189 17.9878C111.535 18.3537 111.936 18.8488 112.315 19.1932C112.337 19.2147 112.359 19.2362 112.38 19.2577C112.521 19.4084 112.64 19.5375 112.749 19.6559C112.922 19.8389 113.225 19.7097 113.225 19.4622C113.225 18.9241 113.225 18.0955 113.225 17.0946C113.225 17.0516 113.225 17.0193 113.215 16.9762C113.106 16.4704 113.02 15.9754 113.074 15.4588C113.117 14.9961 113.225 14.5333 113.225 14.0706C113.225 13.1666 113.225 12.2195 113.225 11.2617C113.225 11.2187 113.225 11.1864 113.225 11.1434C113.334 10.3147 113.117 9.58289 113.128 8.81881C113.139 8.34529 113.225 7.88253 113.225 7.40901C113.225 7.06464 113.225 6.72026 113.225 6.3974C113.225 6.36512 113.225 6.32207 113.225 6.27902C113.16 5.5257 113.16 4.69704 113.225 3.99753C113.225 3.94372 113.225 3.88991 113.225 3.8361C113.225 3.4702 113.225 3.15811 113.225 2.89982C113.225 2.5124 112.911 2.18955 112.521 2.18955C112.424 2.18955 112.315 2.18955 112.196 2.18955C112.164 2.18955 112.131 2.18955 112.099 2.18955C111.514 2.21107 110.788 2.21107 110.181 2.18955C110.138 2.18955 110.095 2.18955 110.051 2.18955C109.434 2.21107 108.806 2.21107 108.21 2.18955C108.177 2.18955 108.134 2.18955 108.102 2.18955C107.798 2.18955 107.538 2.18955 107.311 2.18955C106.921 2.18955 106.607 2.50164 106.607 2.88906C106.607 3.15811 106.607 3.49172 106.607 3.85762C106.607 3.88991 106.607 3.93296 106.607 3.96524C106.607 3.976 106.607 3.976 106.607 3.98676C106.628 4.44952 106.704 4.91228 106.737 5.37504C106.737 5.43961 106.747 5.51494 106.747 5.57951C106.747 6.69873 106.628 5.84855 106.628 6.96778C106.628 7.34444 106.617 7.71034 106.607 8.05472C106.607 8.087 106.607 8.13005 106.607 8.16234C106.585 9.0448 106.585 9.64746 106.585 9.64746Z" fill="#1F074D"/>
</svg>
