<svg width="24" height="24" viewBox="0 0 24 24" fill="none" xmlns="http://www.w3.org/2000/svg">
<path fill-rule="evenodd" clip-rule="evenodd" d="M21.8999 5.57143C21.8999 4.97969 21.4634 4.5 20.9249 4.5H3.3749C2.83642 4.5 2.3999 4.97969 2.3999 5.57143C2.3999 6.16316 2.83642 6.64286 3.3749 6.64286H20.9249C21.4634 6.64286 21.8999 6.16316 21.8999 5.57143ZM21.8999 12C21.8999 11.4083 21.4634 10.9286 20.9249 10.9286H3.3749C2.83642 10.9286 2.3999 11.4083 2.3999 12C2.3999 12.5917 2.83642 13.0714 3.3749 13.0714H20.9249C21.4634 13.0714 21.8999 12.5917 21.8999 12ZM21.8999 18.4286C21.8999 17.8368 21.4634 17.3571 20.9249 17.3571H3.3749C2.83642 17.3571 2.3999 17.8368 2.3999 18.4286C2.3999 19.0203 2.83642 19.5 3.3749 19.5H20.9249C21.4634 19.5 21.8999 19.0203 21.8999 18.4286Z" fill="white"/>
</svg>
