<svg width="20" height="20" viewBox="0 0 20 20" fill="none" xmlns="http://www.w3.org/2000/svg">
<g clip-path="url(#clip0_99_3754)">
<path d="M10 16.6667C11.7675 16.6647 13.462 15.9617 14.7119 14.7119C15.9617 13.462 16.6647 11.7675 16.6667 10V6.66667C16.6667 4.89856 15.9643 3.20286 14.714 1.95262C13.4638 0.702379 11.7681 0 10 0C8.23189 0 6.5362 0.702379 5.28595 1.95262C4.03571 3.20286 3.33333 4.89856 3.33333 6.66667V10C3.33532 11.7675 4.03833 13.462 5.28815 14.7119C6.53796 15.9617 8.2325 16.6647 10 16.6667ZM10 1.66667C11.1805 1.66886 12.3222 2.08822 13.2234 2.85066C14.1246 3.61311 14.7273 4.66955 14.925 5.83333H12.5C12.279 5.83333 12.067 5.92113 11.9107 6.07741C11.7545 6.23369 11.6667 6.44565 11.6667 6.66667C11.6667 6.88768 11.7545 7.09964 11.9107 7.25592C12.067 7.4122 12.279 7.5 12.5 7.5H15V9.16667H12.5C12.279 9.16667 12.067 9.25446 11.9107 9.41074C11.7545 9.56703 11.6667 9.77899 11.6667 10C11.6667 10.221 11.7545 10.433 11.9107 10.5893C12.067 10.7455 12.279 10.8333 12.5 10.8333H14.925C14.7291 11.9979 14.1269 13.0554 13.2253 13.8181C12.3237 14.5807 11.1809 14.9992 10 14.9992C8.81907 14.9992 7.67634 14.5807 6.77471 13.8181C5.87307 13.0554 5.27086 11.9979 5.075 10.8333H7.5C7.72101 10.8333 7.93297 10.7455 8.08926 10.5893C8.24554 10.433 8.33333 10.221 8.33333 10C8.33333 9.77899 8.24554 9.56703 8.08926 9.41074C7.93297 9.25446 7.72101 9.16667 7.5 9.16667H5V7.5H7.5C7.72101 7.5 7.93297 7.4122 8.08926 7.25592C8.24554 7.09964 8.33333 6.88768 8.33333 6.66667C8.33333 6.44565 8.24554 6.23369 8.08926 6.07741C7.93297 5.92113 7.72101 5.83333 7.5 5.83333H5.075C5.27272 4.66955 5.87544 3.61311 6.77664 2.85066C7.67785 2.08822 8.81954 1.66886 10 1.66667Z" fill="#C5A7EB"/>
<path d="M19.1667 10C18.9457 10 18.7337 10.0878 18.5774 10.2441C18.4211 10.4004 18.3333 10.6123 18.3333 10.8333C18.3311 12.8218 17.5402 14.7282 16.1342 16.1342C14.7282 17.5402 12.8218 18.3311 10.8333 18.3333H9.16667C7.17829 18.3309 5.27204 17.54 3.86604 16.134C2.46005 14.728 1.66909 12.8217 1.66667 10.8333C1.66667 10.6123 1.57887 10.4004 1.42259 10.2441C1.26631 10.0878 1.05435 10 0.833333 10C0.61232 10 0.400358 10.0878 0.244078 10.2441C0.0877974 10.4004 0 10.6123 0 10.8333C0.00286706 13.2636 0.969559 15.5935 2.68802 17.312C4.40648 19.0304 6.73639 19.9971 9.16667 20H10.8333C13.2636 19.9971 15.5935 19.0304 17.312 17.312C19.0304 15.5935 19.9971 13.2636 20 10.8333C20 10.6123 19.9122 10.4004 19.7559 10.2441C19.5996 10.0878 19.3877 10 19.1667 10Z" fill="#C5A7EB"/>
</g>
<defs>
<clipPath id="clip0_99_3754">
<rect width="20" height="20" fill="white"/>
</clipPath>
</defs>
</svg>
