<svg width="32" height="32" viewBox="0 0 32 32" fill="none" xmlns="http://www.w3.org/2000/svg">
<path fill-rule="evenodd" clip-rule="evenodd" d="M16 0C7.16375 0 0 7.16375 0 16C0 24.8363 7.16375 32 16 32C24.8363 32 32 24.8363 32 16C32 7.16375 24.8363 0 16 0ZM23.4163 10.8813C23.1756 13.4113 22.1338 19.5506 21.6038 22.3844C21.3794 23.5837 20.9375 23.9856 20.51 24.025C19.5813 24.1106 18.8756 23.4106 17.9756 22.8206C16.5675 21.8975 15.7719 21.3231 14.405 20.4225C12.825 19.3813 13.8494 18.8094 14.7494 17.8744C14.985 17.6294 19.0788 13.9056 19.1581 13.5681C19.1681 13.5256 19.1775 13.3681 19.0837 13.285C18.99 13.2019 18.8519 13.2306 18.7525 13.2531C18.6112 13.285 16.3612 14.7719 12.0037 17.7138C11.365 18.1525 10.7869 18.3656 10.2681 18.355C9.69687 18.3425 8.59813 18.0319 7.78125 17.7663C6.77938 17.4406 5.98312 17.2681 6.0525 16.715C6.08812 16.4269 6.485 16.1325 7.2425 15.8313C11.9069 13.7987 15.0169 12.4594 16.5731 11.8119C21.0168 9.96381 21.94 9.6425 22.5418 9.63188C23.2957 9.61856 23.4776 10.2408 23.4163 10.8813Z" fill="#5C25C5"/>
</svg>
