<svg width="32" height="32" viewBox="0 0 32 32" fill="none" xmlns="http://www.w3.org/2000/svg">
<path d="M16 0C12.8355 0 9.74207 0.938384 7.11088 2.69649C4.4797 4.45459 2.42894 6.95345 1.21793 9.87706C0.00693261 12.8007 -0.309921 16.0177 0.307443 19.1214C0.924806 22.2251 2.44866 25.0761 4.6863 27.3137C6.92394 29.5514 9.77487 31.0752 12.8786 31.6926C15.9823 32.3099 19.1993 31.9931 22.1229 30.7821C25.0466 29.5711 27.5454 27.5203 29.3035 24.8891C31.0616 22.2579 32 19.1645 32 16C32 11.7565 30.3143 7.68687 27.3137 4.68629C24.3131 1.68571 20.2435 0 16 0ZM25.2218 22.2618C24.7564 22.3273 22.48 22.2618 22.3618 22.2618C21.7733 22.2695 21.2056 22.0448 20.7818 21.6364C20.3018 21.1727 19.8727 20.6636 19.4036 20.1818C19.2654 20.0339 19.1152 19.8977 18.9546 19.7745C18.58 19.4873 18.2091 19.5509 18.0327 19.9945C17.895 20.472 17.7989 20.9605 17.7455 21.4545C17.7146 21.9018 17.4309 22.1818 16.9291 22.2127C16.6182 22.2291 16.3073 22.2364 16 22.2273C14.8801 22.2212 13.7776 21.9488 12.7836 21.4327C11.7079 20.8339 10.7705 20.0148 10.0327 19.0291C8.82001 17.48 7.85092 15.7782 6.98546 14.0236C6.94001 13.9345 6.05273 12.0473 6.03092 11.9582C5.95092 11.6618 6.03092 11.3764 6.27637 11.2764C6.43273 11.2164 9.35637 11.2764 9.40546 11.2764C9.62297 11.2749 9.83532 11.3426 10.0118 11.4697C10.1883 11.5969 10.3198 11.7769 10.3873 11.9836C10.9282 13.3673 11.6681 14.6646 12.5836 15.8345C12.7119 15.9904 12.8619 16.1269 13.0291 16.24C13.2673 16.4036 13.4927 16.3473 13.5909 16.0709C13.7074 15.69 13.7758 15.2961 13.7946 14.8982C13.8109 14.1091 13.7946 13.5909 13.7509 12.8018C13.7218 12.2964 13.5436 11.8545 12.7982 11.7109C12.5691 11.6691 12.5491 11.48 12.6964 11.2909C13.0036 10.9 13.4236 10.8364 13.8946 10.8127C14.5964 10.7727 15.2982 10.8 16 10.8127H16.1527C16.4582 10.8116 16.7629 10.8427 17.0618 10.9055C17.2387 10.9416 17.3992 11.0338 17.5194 11.1684C17.6396 11.3031 17.7132 11.4729 17.7291 11.6527C17.7652 11.8518 17.7804 12.0541 17.7746 12.2564C17.7564 13.1164 17.7146 13.9782 17.7055 14.8382C17.697 15.1794 17.7281 15.5205 17.7982 15.8545C17.8982 16.3127 18.2127 16.4273 18.5255 16.0964C18.9307 15.6695 19.3022 15.2118 19.6364 14.7273C20.2287 13.8441 20.7168 12.8954 21.0909 11.9C21.2946 11.3891 21.4546 11.2764 22 11.2764H25.1018C25.2863 11.2731 25.4701 11.2976 25.6473 11.3491C25.71 11.3656 25.7686 11.3948 25.8195 11.435C25.8703 11.4752 25.9124 11.5254 25.9429 11.5826C25.9735 11.6398 25.9919 11.7027 25.997 11.7673C26.0022 11.8319 25.9939 11.8969 25.9727 11.9582C25.82 12.6382 25.4527 13.2182 25.0636 13.7764C24.4327 14.6691 23.7673 15.54 23.1218 16.4218C23.0442 16.5358 22.9731 16.6542 22.9091 16.7764C22.6655 17.2164 22.6836 17.4618 23.0364 17.8255C23.6 18.4055 24.2018 18.9473 24.7455 19.5436C25.1442 19.9775 25.5043 20.4454 25.8218 20.9418C26.2091 21.5673 25.9636 22.1564 25.2218 22.2618Z" fill="#5C25C5"/>
</svg>
